<?xml version="1.0" encoding="UTF-8" standalone="no"?>
<!DOCTYPE svg PUBLIC "-//W3C//DTD SVG 1.1//EN" "http://www.w3.org/Graphics/SVG/1.1/DTD/svg11.dtd">
<svg xmlns="http://www.w3.org/2000/svg" xmlns:xlink="http://www.w3.org/1999/xlink" version="1.1" width="2338.5833pt" height="1653.5444pt" viewBox="0 0 2338.5833 1653.5444" fill="#33abb5">
<g opacity=".8">
<path transform="matrix(2.7777777,0,0,-2.7777777,0,1653.5444)" d="M 0 0 L 841.89 0 L 841.89 595.273 L 0 595.273 Z " />
<path transform="matrix(2.7777777,0,0,-2.7777777,902.75888,994.1383)" d="M 0 0 L 0 86.021 C 0 94.686 -7.024 101.71 -15.689 101.71 L -592.262 101.71 C -600.927 101.71 -607.951 94.686 -607.951 86.021 L -607.951 -399.348 C -607.951 -408.013 -600.927 -415.037 -592.262 -415.037 L -15.689 -415.037 C -7.024 -415.037 0 -408.013 0 -399.348 L 0 -285.938 C 0 -275.207 -10.51 -267.649 -20.683 -271.066 C -69.749 -287.549 -201.285 -325.895 -363.078 -325.895 C -376.384 -325.895 -398.114 -325.222 -412.68 -324.711 C -421.126 -324.416 -427.802 -317.483 -427.802 -309.032 L -427.802 -208.3 C -427.802 -199.085 -419.898 -191.854 -410.719 -192.673 L -158.985 -215.128 C -152.865 -215.673 -146.991 -212.597 -143.953 -207.257 L -104.332 -137.599 C -98.008 -126.48 -106.928 -112.87 -119.644 -114.263 C -215.729 -124.797 -313.278 -130.462 -412.04 -131.007 C -420.731 -131.055 -427.802 -123.985 -427.802 -115.293 L -427.802 -31.379 C -427.802 -22.714 -420.778 -15.689 -412.113 -15.689 L -15.689 -15.689 C -7.024 -15.689 0 -8.665 0 0 " fill="#fca28a"/>
<path transform="matrix(2.7777777,0,0,-2.7777777,1516.6497,2147.0198)" d="M 0 0 L -148.771 0 C -157.435 0 -164.459 7.024 -164.459 15.689 L -164.459 501.058 C -164.459 509.723 -157.435 516.748 -148.771 516.748 L 0 516.748 C 8.665 516.748 15.689 509.723 15.689 501.058 L 15.689 15.689 C 15.689 7.024 8.665 0 0 0 " fill="#fca28a"/>
<path transform="matrix(2.7777777,0,0,-2.7777777,2538.5335,1766.5022)" d="M 0 0 C -62.818 86.686 -175.426 124.127 -295.53 124.127 C -302.277 124.219 -304.8 133.095 -299.069 136.656 C -228.165 180.707 -146.238 190.617 -36.534 191.007 C -32.117 191.022 -27.886 192.886 -24.922 196.162 L 117.47 353.546 C 126.596 363.633 119.439 379.761 105.836 379.761 L -105.494 379.761 C -109.927 379.761 -114.154 377.885 -117.128 374.598 L -333.845 135.063 C -339.295 129.039 -339.246 119.851 -333.731 113.886 L -106.453 -131.948 C -103.484 -135.16 -99.308 -136.986 -94.933 -136.986 L 91.091 -136.986 C 105.969 -136.986 112.501 -118.233 100.831 -109.005 C 74.977 -88.56 39.571 -54.605 0 0 " fill="#fca28a"/>
</g>
</svg>
