<svg xmlns="http://www.w3.org/2000/svg" width="3118.111" height="2204.726" viewBox="0 0 2338.583 1653.544" fill="var(COLOR2, #f8edca)">
  <path d="M0 1653.544h2338.583V.008H0Z"/>
  <path d="M902.759 994.138V755.191c0-24.07-19.511-43.58-43.58-43.58H-742.414c-24.07 0-43.58 19.51-43.58 43.58v1348.247c0 24.07 19.51 43.58 43.58 43.58H859.178c24.07 0 43.58-19.51 43.58-43.58V1788.41c0-29.808-29.194-50.802-57.452-41.31-136.294 45.785-501.672 152.302-951.097 152.302-36.961 0-97.322-1.87-137.783-3.289-23.462-.82-42.006-20.078-42.006-43.553v-279.81c0-25.598 21.956-45.684 47.453-43.409l699.26 62.375a43.59 43.59 0 0 0 41.756-21.864l110.059-193.494c17.566-30.886-7.211-68.692-42.534-64.822-266.902 29.26-537.872 44.997-812.21 46.51-24.142.134-43.784-19.505-43.784-43.65v-233.094c0-24.07 19.511-43.583 43.58-43.583H859.179c24.07 0 43.58-19.511 43.58-43.58M1516.65 2147.02h-413.253c-24.067 0-43.578-19.511-43.578-43.58V755.191c0-24.07 19.511-43.583 43.578-43.583h413.253c24.07 0 43.58 19.514 43.58 43.583V2103.44c0 24.07-19.51 43.58-43.58 43.58m1021.884-380.518c-174.495-240.794-487.295-344.797-820.917-344.797-18.742-.256-25.75-24.911-9.83-34.803 196.955-122.364 424.53-149.891 729.263-150.975 12.27-.041 24.022-5.22 32.256-14.32l395.533-437.177c25.35-28.02 5.47-72.82-32.317-72.82h-587.027a43.6 43.6 0 0 0-32.317 14.342l-601.992 665.375c-15.139 16.734-15.002 42.256.317 58.825l631.328 682.872a43.58 43.58 0 0 0 32 13.995h516.733c41.328 0 59.472-52.092 27.056-77.725-71.817-56.792-170.167-151.111-280.086-302.792" fill="var(COLOR1, #fca28a)"/>
</svg>
