<svg xmlns="http://www.w3.org/2000/svg" width="3118.111" height="2204.726" viewBox="0 0 2338.583 1653.544" fill="var(COLOR2, #f8edca)">
  <path d="M0 1653.544h2338.583V.008H0Z"/>
  <path d="M1111.782 1231.962C900.72 940.706 522.368 814.906 118.829 814.906c-22.667-.308-31.144-30.13-11.889-42.094 238.23-148.006 513.497-181.306 882.092-182.614 14.842-.053 29.058-6.314 39.014-17.322L1506.47 44.084c30.66-33.892 6.614-88.08-39.092-88.08H757.335a52.7 52.7 0 0 0-39.092 17.347L-9.904 778.164c-18.311 20.24-18.145 51.112.383 71.153l763.63 825.975a52.7 52.7 0 0 0 38.706 16.93h625.022c49.992 0 71.94-63.008 32.728-94.016-86.87-68.692-205.828-182.778-338.783-366.244" fill="var(COLOR1, #e8d285)"/>
</svg>
