<?xml version="1.0" encoding="UTF-8" standalone="no"?>
<!DOCTYPE svg PUBLIC "-//W3C//DTD SVG 1.1//EN" "http://www.w3.org/Graphics/SVG/1.1/DTD/svg11.dtd">
<svg xmlns="http://www.w3.org/2000/svg" xmlns:xlink="http://www.w3.org/1999/xlink" version="1.1" width="2338.5833pt" height="1653.5444pt" viewBox="0 0 2338.5833 1653.5444" fill="#f8edca">
  <g enable-background="new" fill="#f8edca">
    <g id="Layer-1" data-name="Figure">
      <path transform="matrix(2.7777777,0,0,-2.7777777,0,1653.5444)" d="M 0 0 L 841.89 0 L 841.89 595.273 L 0 595.273 Z " fill="#f8edca"/>
      <g clip-path="url(#cp2)">
        <path transform="matrix(2.7777777,0,0,-2.7777777,1111.7819,1231.9616)" d="M 0 0 C -75.982 104.852 -212.189 150.14 -357.463 150.14 C -365.623 150.251 -368.675 160.987 -361.743 165.294 C -275.98 218.576 -176.884 230.564 -44.19 231.035 C -38.847 231.054 -33.729 233.308 -30.145 237.271 L 142.088 427.636 C 153.126 439.837 144.469 459.345 128.015 459.345 L -127.601 459.345 C -132.964 459.345 -138.076 457.077 -141.674 453.1 L -403.807 163.367 C -410.399 156.081 -410.339 144.967 -403.669 137.752 L -128.762 -159.599 C -125.17 -163.485 -120.119 -165.694 -114.828 -165.694 L 110.18 -165.694 C 128.177 -165.694 136.078 -143.011 121.962 -131.848 C 90.689 -107.119 47.864 -66.048 0 0 " fill="#e8d285"/>
      </g>
    </g>
  </g>
</svg>
