<svg xml:space="preserve" viewBox="52.136 35.094091903719914 968.24 316.910284463895" width="968.24" y="0px" x="0px" xmlns:xlink="http://www.w3.org/1999/xlink" xmlns="http://www.w3.org/2000/svg" id="Layer_1" version="1.1" style="max-height: 500px" height="316.910284463895">
<path d="M1.000000,2.000000   C1.166667,1.666667 1.315919,1.056198 1.502793,1.044456   C2.830883,0.961004 4.166667,1.000000 5.500000,1.000000   C358.666656,1.000000 711.833313,1.000000 1064.730957,1.529415   C1064.284058,2.090079 1064.106323,2.121328 1063.477661,2.089361   C1061.527100,2.016475 1060.027466,1.998334 1058.527710,1.998334   C710.060425,1.998181 361.593109,1.998966 13.125808,2.004880   C9.461145,2.004942 5.796484,2.072856 1.848919,2.081280   C1.377344,2.035643 1.188672,2.017822 1.000000,2.000000  z" stroke="none" opacity="1.000000" fill="#F9D3D0"/>
<path d="M1065.000000,486.000000   C1064.833374,486.333344 1064.684082,486.943817 1064.497192,486.955536   C1063.169067,487.038971 1061.833374,487.000000 1060.500000,487.000000   C707.333313,487.000000 354.166656,487.000000 1.283345,486.472473   C1.755575,485.926544 1.944461,485.908112 2.580287,485.935211   C3.527157,485.986450 4.027087,485.997131 4.527017,485.997131   C356.163696,485.999054 707.800354,486.000519 1059.437012,485.995178   C1060.933838,485.995148 1062.430542,485.898132 1064.194336,485.892731   C1064.640747,485.959351 1064.820312,485.979675 1065.000000,486.000000  z" stroke="none" opacity="1.000000" fill="#FAD2D0"/>
<path d="M1065.000000,485.537354   C1064.820312,485.979675 1064.640747,485.959351 1064.222534,485.447449   C1063.989136,327.352814 1063.994995,169.749741 1063.997070,12.146667   C1063.997070,8.815304 1063.952271,5.483941 1063.928467,2.152577   C1064.106323,2.121328 1064.284058,2.090079 1064.730957,2.029415   C1065.000000,163.024902 1065.000000,324.049805 1065.000000,485.537354  z" stroke="none" opacity="1.000000" fill="#EF7A73"/>
<path d="M2.133346,485.889679   C1.944461,485.908112 1.755575,485.926544 1.283345,485.972473   C1.000000,324.975098 1.000000,163.950180 1.000000,2.462638   C1.188672,2.017822 1.377344,2.035643 1.797744,2.529500   C2.020446,163.135818 2.011227,323.266083 2.007798,483.396362   C2.007780,484.227478 2.089694,485.058563 2.133346,485.889679  z" stroke="none" opacity="1.000000" fill="#F5A6A1"/>
<path d="M2.580286,485.935211   C2.089694,485.058563 2.007780,484.227478 2.007798,483.396362   C2.011227,323.266083 2.020446,163.135818 2.080647,2.557315   C5.796484,2.072856 9.461145,2.004942 13.125808,2.004880   C361.593109,1.998966 710.060425,1.998181 1058.527710,1.998334   C1060.027466,1.998334 1061.527100,2.016475 1063.477661,2.089361   C1063.952271,5.483941 1063.997070,8.815304 1063.997070,12.146667   C1063.994995,169.749741 1063.989136,327.352814 1063.955566,485.401123   C1062.430542,485.898132 1060.933838,485.995148 1059.437012,485.995178   C707.800354,486.000519 356.163696,485.999054 4.527017,485.997131   C4.027087,485.997131 3.527157,485.986450 2.580286,485.935211  M715.504028,178.988083   C706.691589,186.753708 701.424377,196.554245 698.829651,207.912857   C695.559265,222.229080 695.369202,236.591370 697.860901,251.047440   C702.014771,275.147369 715.686646,291.014008 739.391968,296.907959   C750.912842,299.772430 763.009155,301.553833 774.861755,301.644989   C835.179138,302.108917 895.501892,301.859467 955.822815,301.859772   C957.585571,301.859772 959.348328,301.859772 961.611511,301.859772   C961.611511,299.214539 961.611511,297.246460 961.611511,295.278381   C961.611023,257.952728 961.714966,220.626602 961.534180,183.301834   C961.490784,174.336365 961.127319,165.284149 959.834778,156.428955   C955.259521,125.085777 938.779236,103.113983 908.230591,92.590591   C893.250122,87.430115 877.739136,85.519592 862.049377,85.456627   C813.726807,85.262695 765.402954,85.385834 717.079590,85.385780   C715.291321,85.385780 713.502991,85.385780 711.485596,85.385780   C711.485596,98.026955 711.485596,110.061768 711.485596,122.614235   C713.792725,122.614235 715.757080,122.614235 717.721375,122.614243   C763.711914,122.614494 809.702576,122.547920 855.692749,122.678566   C863.666626,122.701218 871.694702,123.117363 879.597351,124.133148   C891.426697,125.653641 902.859192,128.724487 912.017151,137.057205   C919.297180,143.681290 923.065247,152.032837 924.050110,162.385376   C921.303528,162.385376 919.170715,162.385391 917.037903,162.385391   C877.712708,162.385437 838.387329,162.336456 799.062317,162.413559   C786.242920,162.438690 773.395813,162.328644 760.612366,163.113037   C744.440063,164.105347 729.015564,167.944214 715.504028,178.988083  M538.500000,223.001892   C551.995239,223.001938 565.504822,223.380936 578.980774,222.871292   C588.251648,222.520691 597.632629,221.678284 606.690552,219.761520   C630.393433,214.745728 646.529907,201.191101 651.797852,176.702667   C654.843323,162.545624 654.789368,148.299469 652.198669,134.034348   C647.989075,110.855103 634.487976,95.870071 611.810242,90.211288   C600.609375,87.416351 588.857056,85.852821 577.313538,85.601318   C548.171021,84.966385 518.999634,85.059303 489.851776,85.558578   C478.600342,85.751297 467.216064,87.002357 456.178131,89.204102   C422.310577,95.959740 399.905304,115.495712 392.520752,149.976410   C386.310455,178.974197 386.305359,208.229584 392.500000,237.213455   C399.222900,268.668579 418.655548,288.884399 449.929535,296.320068   C463.576202,299.564667 477.851593,301.434326 491.870911,301.612671   C541.012329,302.237671 590.166565,301.855072 639.315918,301.855072   C641.093262,301.855072 642.870667,301.855072 644.721313,301.855072   C644.721313,289.175537 644.721313,277.145508 644.721313,264.845764   C642.300720,264.845764 640.313049,264.845764 638.325439,264.845764   C589.509277,264.845673 540.692322,264.996246 491.877777,264.714661   C482.450531,264.660339 472.907684,263.576080 463.636078,261.817780   C441.563934,257.632019 428.706268,243.523895 427.576080,223.001892   C464.230011,223.001892 500.865021,223.001892 538.500000,223.001892  M328.054199,125.554108   C341.647705,112.507675 355.241180,99.461243 369.899597,85.392761   C358.356903,85.392761 348.299011,86.319420 338.481323,85.178825   C323.182953,83.401489 312.346375,88.759521 301.321136,99.611252   C254.445679,145.748947 206.565018,190.865479 159.038391,236.341278   C153.581345,241.562851 148.042557,246.699005 141.603165,252.757797   C141.603165,249.445862 141.603165,247.494003 141.603165,245.542160   C141.603180,194.389709 141.603317,143.237259 141.602524,92.084808   C141.602493,90.751892 141.880112,89.328140 141.497421,88.114082   C141.177032,87.097702 140.090378,85.571091 139.324234,85.559898   C128.039062,85.395210 116.750763,85.446487 105.409966,85.446487   C105.409966,157.845032 105.409966,229.693893 105.409966,301.848846   C117.631035,301.848846 129.444321,301.936035 141.253082,301.744354   C142.823746,301.718903 144.673462,300.595520 145.884338,299.444458   C163.385208,282.808350 180.792770,266.074188 198.235825,249.377182   C207.953949,240.074707 217.696381,230.797653 227.650391,221.296768   C229.858398,223.113647 231.784668,224.666931 233.676956,226.260544   C262.467346,250.506378 291.219818,274.797668 320.114746,298.918243   C322.069946,300.550415 325.078674,301.689514 327.617706,301.728119   C343.942688,301.976685 360.273346,301.861450 376.602112,301.838440   C377.776581,301.836792 378.950714,301.619354 380.995667,301.415405   C338.579987,265.895111 296.904175,230.994385 254.956451,195.865952   C279.556152,172.210266 303.555054,149.132355 328.054199,125.554108  M767.371521,367.539612   C767.371521,378.955048 767.371521,390.370514 767.371521,401.913666   C770.919800,401.913666 773.684143,401.913666 776.412720,401.913666   C778.552307,396.388397 774.333496,389.616486 780.410828,384.871155   C781.419128,386.727234 782.630737,388.225494 783.092407,389.927246   C785.970581,400.535797 792.766235,403.985138 803.397583,402.375305   C807.076111,401.818268 809.450684,401.360596 809.556396,397.364441   C809.714600,391.384338 814.111694,393.177063 817.464905,392.839905   C821.009949,392.483429 823.217773,393.385468 823.303040,397.470215   C823.378357,401.080505 825.244263,402.821136 829.061707,402.205231   C830.592163,401.958282 832.195618,402.164612 834.325867,402.164612   C830.778198,388.966553 827.449707,376.627533 824.147461,364.281555   C822.146484,356.800873 822.164368,356.933228 814.333374,356.914825   C811.507812,356.908173 810.235901,357.694641 809.567444,360.549042   C807.824646,367.990601 805.737732,375.352295 803.748901,382.735291   C802.301453,388.108368 800.791443,393.464600 798.988831,399.988220   C794.999573,392.555420 791.766357,386.199066 788.198792,380.036224   C786.614990,377.300171 786.948853,375.280975 788.663696,372.797607   C792.022278,367.933746 795.064758,362.851593 798.372864,357.647827   C788.988708,356.044098 788.994995,356.048126 784.513550,363.049561   C782.316711,366.481659 780.091553,369.895660 777.879211,373.317841   C777.578674,373.234100 777.278198,373.150330 776.977661,373.066559   C776.977661,367.859955 776.977661,362.653381 776.977661,357.324432   C773.587952,357.324432 770.710938,357.324432 767.372070,357.324432   C767.372070,360.623322 767.372070,363.590851 767.371521,367.539612  M945.165833,392.468140   C945.165833,380.737305 945.165833,369.006470 945.165833,357.260864   C940.088440,357.260864 935.820801,357.260864 931.398987,357.260864   C929.353943,366.825806 927.357300,376.163971 925.360718,385.502167   C922.602905,377.000244 920.960266,368.691895 919.074646,360.439087   C918.783386,359.164307 917.464294,357.260742 916.470825,357.162628   C912.595825,356.779999 908.660706,357.006531 904.813232,357.006531   C904.813232,372.452850 904.813232,387.140228 904.813232,401.718994   C907.820007,401.718994 910.364319,401.718994 913.220459,401.718994   C913.220459,391.269653 913.220459,381.261017 913.220459,371.252350   C915.941101,379.332306 917.833557,387.527374 919.707886,395.726593   C921.324158,402.796783 921.315002,402.798859 928.726501,401.593353   C930.887390,392.295715 933.077820,382.870911 935.268250,373.446106   C935.687012,373.496277 936.105713,373.546478 936.524475,373.596649   C936.524475,382.996613 936.524475,392.396576 936.524475,401.769348   C939.702026,401.769348 942.258850,401.769348 945.166016,401.769348   C945.166016,398.737000 945.166016,396.097351 945.165833,392.468140  M271.014130,374.501282   C271.014130,368.745972 271.014130,362.990662 271.014130,357.329865   C267.702423,357.329865 265.125427,357.329865 261.878540,357.329865   C261.878540,366.211609 261.878540,374.766479 261.878540,383.321350   C258.191284,375.733154 255.345428,368.126038 252.775314,360.426910   C251.892151,357.781250 250.605804,356.637665 247.779373,356.937592   C245.520813,357.177246 243.216537,356.985992 240.677002,356.985992   C240.677002,372.228088 240.677002,386.945801 240.677002,401.839722   C243.554657,401.839722 246.116547,401.839722 249.213776,401.839722   C249.213776,392.402466 249.213776,383.277893 249.213776,374.153290   C253.065720,382.093445 256.133606,390.115448 258.758636,398.279816   C259.770782,401.427856 261.331635,402.540619 264.469360,402.212708   C266.523926,401.997955 268.619202,402.172150 271.014130,402.172150   C271.014130,392.755829 271.014130,384.128235 271.014130,374.501282  M381.019409,401.705261   C383.578918,401.862579 386.138428,402.019928 389.310486,402.214935   C389.310486,392.393097 389.310486,383.311646 389.310486,374.230225   C389.600250,374.204956 389.890015,374.179718 390.179779,374.154449   C392.508606,380.715820 394.837372,387.277222 397.166229,393.838562   C400.269501,402.581787 400.269745,402.585236 409.697083,402.000519   C409.983521,401.982758 410.254822,401.721497 410.713074,401.478333   C410.713074,386.844208 410.713074,372.132080 410.713074,357.262390   C407.840820,357.262390 405.266388,357.262390 402.160675,357.262390   C402.160675,366.353546 402.160675,375.194061 402.160675,384.034607   C398.853973,377.879730 396.528595,371.566864 394.241638,365.240082   C391.090179,356.521698 391.102356,356.513580 381.716827,357.143738   C381.431427,357.162872 381.163208,357.437469 380.563782,357.774902   C380.563782,372.041016 380.563782,386.481415 381.019409,401.705261  M203.542831,394.771271   C205.544510,385.937042 204.514526,382.835419 197.974609,378.376770   C198.718307,377.677643 199.464920,377.039337 200.138779,376.331757   C203.663696,372.630341 203.677017,368.202972 202.323456,363.743896   C201.073181,359.625000 197.686264,357.513794 193.660751,357.287567   C187.422775,356.936981 181.150574,357.195068 174.707306,357.195068   C174.707306,372.294464 174.707306,387.003632 174.707306,401.999176   C181.494064,401.999176 188.060532,402.699646 194.360123,401.706787   C197.560745,401.202362 200.280716,397.648254 203.542831,394.771271  M143.075485,359.507263   C135.435745,371.540405 137.213104,384.136902 140.785934,396.866028   C141.315521,398.752869 141.490768,400.737152 141.882172,402.665741   C142.030762,403.397980 142.127197,404.444916 142.608948,404.723755   C143.139877,405.031067 144.636597,404.829865 144.765854,404.490082   C145.937775,401.408997 148.182678,402.773773 150.174973,403.005005   C160.901535,404.250000 167.061737,400.939484 168.308701,391.538086   C169.669189,381.280670 171.198853,370.694092 165.693085,360.825836   C165.111954,359.784210 166.060089,357.968353 165.647827,356.728027   C165.331268,355.775696 163.989746,355.164032 163.104050,354.400879   C161.404556,358.630249 158.088669,355.736603 155.512344,356.202240   C151.517090,356.924377 147.595825,358.055939 143.075485,359.507263  M650.049622,388.976074   C650.077087,390.308258 650.125244,391.640350 650.128906,392.972595   C650.155090,402.565033 650.295715,402.702179 659.857727,402.020752   C660.158691,401.999268 660.442078,401.730835 660.816284,401.534058   C658.159729,394.471527 662.563721,385.533783 654.407959,379.503113   C655.604675,378.528778 656.812317,377.858093 657.597412,376.856262   C663.235901,369.661682 659.383057,358.217010 650.686890,357.303375   C644.154907,356.617065 637.492981,357.167725 630.755371,357.167725   C630.755371,372.319061 630.755371,387.041473 630.755371,401.920624   C633.908752,401.920624 636.675354,401.920624 640.060486,401.920624   C640.060486,395.624481 640.060486,389.558136 640.060486,383.425507   C644.763916,383.050079 648.890869,382.500305 650.049622,388.976074  M277.120880,369.514923   C277.120880,380.271881 277.120880,391.028839 277.120880,401.866150   C280.595581,401.866150 283.343994,401.866150 286.656738,401.866150   C286.656738,395.315125 286.656738,389.066162 286.656738,382.501953   C290.279846,382.501953 293.339874,382.501953 297.035828,382.501953   C297.035828,389.067169 297.035828,395.450806 297.035828,401.934631   C300.445099,401.934631 303.221527,401.934631 306.320374,401.934631   C306.320374,386.974609 306.320374,372.252197 306.320374,357.272461   C303.200317,357.272461 300.316040,357.272461 296.876038,357.272461   C296.876038,362.951874 296.876038,368.349335 296.876038,373.760590   C293.241882,373.760590 290.177094,373.760590 286.466431,373.760590   C286.466431,368.028381 286.466431,362.645599 286.466431,357.314423   C283.058380,357.314423 280.310577,357.314423 277.120972,357.314423   C277.120972,361.265717 277.120972,364.894501 277.120880,369.514923  M548.378296,374.124451   C546.095947,374.124451 543.813538,374.124451 540.977051,374.124451   C540.977051,368.203613 540.977051,362.796295 540.977051,357.363892   C537.530945,357.363892 534.655762,357.363892 531.830261,357.363892   C531.830261,372.439545 531.830261,387.135803 531.830261,401.861267   C535.042603,401.861267 537.794128,401.861267 541.185547,401.861267   C541.185547,395.190277 541.185547,388.808350 541.185547,382.482910   C544.766968,382.482910 547.693726,382.482910 551.138794,382.482910   C551.138794,389.036072 551.138794,395.291229 551.138794,401.848450   C554.548889,401.848450 557.430237,401.848450 560.530701,401.848450   C560.530701,386.829987 560.530701,372.113770 560.530701,357.357605   C557.300415,357.357605 554.409302,357.357605 551.130981,357.357605   C551.130981,361.858551 551.276428,366.003174 551.047852,370.127045   C550.973206,371.473175 549.924316,372.765289 548.378296,374.124451  M495.996399,385.498322   C495.996399,390.936035 495.996399,396.373718 495.996399,401.910309   C499.443268,401.910309 502.217255,401.910309 505.712036,401.910309   C505.712036,395.631348 505.712036,389.582123 505.712036,383.637848   C513.379272,382.768860 514.717346,383.703033 515.447937,389.878937   C515.603882,391.197266 515.787903,392.519226 515.826782,393.843384   C516.082642,402.559204 516.071106,402.563843 524.729004,402.128876   C525.209900,402.104736 525.682434,401.913635 526.641418,401.685425   C522.592712,394.787903 528.673096,385.257050 519.852417,379.702118   C525.858948,375.825684 525.928223,370.196808 524.775696,364.485901   C523.883179,360.063812 520.388672,357.590973 516.157715,357.316803   C509.592407,356.891388 502.979248,357.204468 495.996307,357.204468   C495.996307,366.582977 495.996307,375.540863 495.996399,385.498322  M855.884155,357.144073   C849.969971,357.144073 844.055786,357.144073 838.238220,357.144073   C838.238220,372.429962 838.238220,387.123901 838.238220,402.160217   C843.437073,402.160217 848.237549,402.191895 853.037537,402.153168   C861.165161,402.087555 865.812561,398.857941 866.794495,390.793640   C867.686401,383.468292 867.442017,375.932007 866.968079,368.535553   C866.579834,362.476410 862.886047,358.534576 855.884155,357.144073  M116.313721,371.686707   C115.821243,372.225067 115.328758,372.763458 114.015198,374.199402   C114.015198,367.819336 114.015198,362.604492 114.015198,357.340393   C110.771866,357.340393 108.053497,357.340393 105.354370,357.340393   C105.354370,372.405975 105.354370,387.124451 105.354370,401.726685   C108.442390,401.726685 111.163155,401.726685 113.730576,401.726685   C115.285522,395.953400 111.815643,389.506805 117.415993,385.032501   C117.766060,385.334961 118.106056,385.501709 118.250282,385.772644   C120.046013,389.145905 121.829376,392.525970 123.584511,395.920563   C127.209709,402.931976 128.600693,403.519318 136.591721,401.340454   C136.591721,401.180511 136.649521,400.990051 136.583450,400.865021   C132.856445,393.811066 128.943756,386.846161 125.513824,379.651093   C124.718407,377.982452 124.876991,375.149109 125.784325,373.508575   C128.801376,368.053467 132.359177,362.897400 135.718307,357.613068   C128.558487,355.424835 124.020210,357.589966 121.235703,363.943542   C120.114517,366.501801 118.250809,368.734650 116.313721,371.686707  M707.913452,382.632019   C710.619873,383.870575 713.626526,384.708008 715.955078,386.451233   C718.737793,388.534424 719.152161,392.274139 716.529724,394.232574   C714.717346,395.586029 710.927917,395.467926 708.614258,394.536407   C707.211182,393.971497 706.936951,390.602692 706.081726,388.294189   C703.362305,388.294189 700.454773,388.294189 697.575745,388.294189   C696.733887,399.227203 701.906067,403.753876 714.152283,403.131897   C721.742554,402.746429 726.340088,399.251495 727.637268,392.881012   C729.134644,385.526917 726.571716,380.655090 719.363220,377.280548   C716.354004,375.871796 712.863647,375.076965 710.420471,373.019348   C708.816223,371.668304 708.107239,368.541870 708.166199,366.240448   C708.194153,365.152527 711.302551,363.007599 712.414978,363.341522   C714.224304,363.884613 715.602905,366.013794 717.030457,367.593536   C717.512146,368.126495 717.590576,369.023895 717.807678,369.627869   C720.760193,369.627869 723.376343,369.627869 727.548584,369.627869   C725.795410,365.721100 724.977661,362.078522 722.840515,359.552246   C719.417725,355.506226 710.012451,354.939301 704.492188,357.638184   C699.784912,359.939636 697.569092,364.605255 697.992554,371.118805   C698.381653,377.103027 702.077087,380.295776 707.913452,382.632019  M437.875793,377.557495   C434.688751,376.135315 431.103577,375.212738 428.461334,373.106995   C426.829590,371.806580 426.036255,368.700684 426.050049,366.412506   C426.056763,365.297913 429.245148,362.987579 430.166016,363.345673   C432.097107,364.096710 433.520874,366.217834 435.061432,367.862122   C435.453125,368.280151 435.501862,369.019531 435.687347,369.551453   C438.554413,369.551453 441.145020,369.551453 443.760010,369.551453   C444.749512,365.114166 443.715240,361.449768 440.304413,359.060272   C434.659912,355.105835 428.369843,354.987366 422.271881,357.828857   C416.605408,360.469269 415.647888,365.703888 415.996582,371.366302   C416.295258,376.217224 418.951965,379.370728 423.179535,381.338928   C426.489319,382.879822 430.257507,383.773590 433.058105,385.941681   C434.690094,387.205048 435.816040,390.668884 435.301239,392.659454   C434.903839,394.196289 431.470886,396.025909 429.626160,395.797638   C427.895386,395.583466 426.359253,392.931610 424.984406,391.160736   C424.484283,390.516571 424.697021,389.318909 424.577362,388.313934   C421.324432,388.313934 418.416534,388.313934 415.545685,388.313934   C414.790314,396.354034 417.704132,401.075745 424.207458,402.726501   C433.119690,404.988739 442.020660,401.910980 444.696381,395.641907   C447.808899,388.349426 445.674377,382.194275 437.875793,377.557495  M315.798370,378.180542   C313.717407,385.953796 311.636444,393.727051 309.465118,401.837830   C313.117981,401.837830 316.858704,402.938751 318.439423,401.561157   C320.448059,399.810699 320.705444,396.050720 321.690491,393.235504   C332.042419,392.103638 332.042419,392.103638 335.533508,401.793884   C338.550323,401.793884 341.591522,401.793884 345.022339,401.793884   C340.959473,386.624695 337.016632,371.903595 333.022034,356.989319   C330.656128,356.989319 328.637024,357.229156 326.696960,356.939484   C322.638550,356.333466 320.742310,357.824982 319.977844,361.949890   C319.011810,367.162598 317.338684,372.244293 315.798370,378.180542  M752.602966,357.537537   C748.842712,357.296967 745.082397,357.056396 741.053650,356.798645   C736.995544,372.064606 733.062012,386.862152 729.061829,401.910217   C732.767090,401.910217 735.710205,401.910217 738.562866,401.910217   C741.964417,391.987335 742.860718,391.466278 752.690979,393.491425   C755.306946,403.094208 755.306946,403.094208 764.524536,401.496216   C760.654053,387.066833 756.798401,372.692505 752.602966,357.537537  M694.046387,365.650818   C694.674988,362.935699 695.303589,360.220612 695.977478,357.309692   C692.473816,357.309692 689.388855,357.309692 686.211304,357.309692   C684.044983,367.793915 681.937744,377.992340 679.830505,388.190735   C679.627808,388.173340 679.425110,388.155945 679.222412,388.138550   C677.174500,377.784485 675.126526,367.430420 673.139038,357.381836   C669.363159,357.381836 666.323608,357.381836 663.051208,357.381836   C666.257935,371.252625 669.558777,384.653748 672.359253,398.158630   C673.242493,402.418060 675.691772,402.394958 678.801636,402.166504   C681.991699,401.932190 685.670532,403.539642 686.723999,398.110260   C688.782776,387.500031 691.494202,377.016479 694.046387,365.650818  M591.160095,381.775818   C593.041687,373.702911 594.923279,365.630005 596.868958,357.282196   C593.358643,357.282196 590.282471,357.282196 587.073730,357.282196   C584.916504,367.761047 582.811340,377.986664 580.402954,389.685486   C578.064636,377.894989 576.009705,367.533752 573.987671,357.338013   C570.366028,357.338013 567.306580,357.338013 563.892883,357.338013   C567.405334,372.438568 570.821716,387.126129 574.319275,402.162567   C576.973694,402.162567 579.298157,401.969147 581.577515,402.207306   C585.116272,402.577026 587.040649,401.576721 587.635254,397.685486   C588.412048,392.602203 589.852173,387.620239 591.160095,381.775818  M347.348083,370.180603   C349.546814,379.566620 351.661255,388.974060 354.033295,398.316071   C354.396912,399.748138 355.766724,401.755646 356.979980,402.007111   C365.272430,403.726044 366.956085,402.523956 368.853882,394.424927   C369.460602,391.835693 370.066589,389.246216 370.656799,386.653198   C372.859100,376.977417 375.054749,367.300110 377.315277,357.348663   C375.767822,357.190002 374.791382,357.142242 373.833588,356.982666   C369.355194,356.236725 366.768494,357.530762 366.332733,362.609833   C365.951508,367.053375 364.752258,371.432281 363.830292,375.822113   C363.053253,379.521942 362.155518,383.196411 361.311218,386.882111   C358.900421,379.528931 357.407379,372.377350 356.079620,365.195221   C354.468567,356.480957 354.528595,356.465393 345.864136,357.139343   C345.580902,357.161346 345.320068,357.471008 344.679688,357.885468   C345.478577,361.614258 346.309845,365.494171 347.348083,370.180603  M472.596771,402.176178   C478.867096,402.176178 485.137421,402.176178 491.540436,402.176178   C491.540436,399.427490 491.540436,397.368866 491.540436,394.779968   C485.962708,394.779968 480.706329,394.779968 475.300781,394.779968   C475.300781,390.551544 475.300781,386.862671 475.300781,382.762238   C480.327332,382.762238 484.941040,382.762238 489.775940,382.762238   C489.775940,379.989716 489.775940,377.644928 489.775940,374.768311   C484.639648,374.768311 479.896301,374.768311 475.170898,374.768311   C475.170898,371.292755 475.170898,368.358276 475.170898,364.819031   C480.510162,364.819031 485.576233,364.819031 490.743103,364.819031   C490.743103,361.951904 490.743103,359.702240 490.743103,357.325073   C482.251251,357.325073 474.038910,357.325073 465.772949,357.325073   C465.772949,372.385376 465.772949,387.095947 465.772949,402.176666   C468.001648,402.176666 469.815002,402.176666 472.596771,402.176178  M614.650513,394.838135   C613.083923,394.720703 611.517273,394.603241 610.056763,394.493744   C610.056763,390.323151 610.056763,386.777679 610.056763,382.773529   C615.081299,382.773529 619.677856,382.773529 624.442261,382.773529   C624.442261,379.941132 624.442261,377.596497 624.442261,374.854431   C619.419189,374.854431 614.809143,374.854431 609.989014,374.854431   C609.989014,371.414032 609.989014,368.382751 609.989014,364.721222   C615.401550,364.721222 620.457520,364.721222 625.506348,364.721222   C625.506348,361.845398 625.506348,359.610199 625.506348,357.278931   C616.916504,357.278931 608.683777,357.278931 600.292725,357.278931   C600.292725,372.274506 600.292725,386.980743 600.292725,401.818878   C608.976990,401.818878 617.355469,401.818878 625.820923,401.818878   C625.820923,399.414581 625.820923,397.355591 625.820923,394.839050   C622.198486,394.839050 618.906250,394.839050 614.650513,394.838135  M896.307129,402.157013   C902.616943,402.245789 899.233215,397.975342 899.941223,394.726196   C894.173523,394.726196 888.939270,394.726196 883.444214,394.726196   C883.444214,390.592926 883.444214,387.030731 883.444214,382.747223   C888.547485,382.747223 893.402588,382.747223 898.241211,382.747223   C898.241211,379.780304 898.241211,377.538910 898.241211,374.829102   C893.119751,374.829102 888.365173,374.829102 883.548035,374.829102   C883.548035,371.299530 883.548035,368.256775 883.548035,364.687592   C889.001099,364.687592 894.073242,364.687592 899.292297,364.687592   C899.292297,361.912567 899.292297,359.672577 899.292297,357.297913   C890.747681,357.297913 882.526611,357.297913 874.176636,357.297913   C874.176636,372.297943 874.176636,386.991699 874.176636,402.157745   C881.452332,402.157745 888.399231,402.157745 896.307129,402.157013  M234.701538,364.553925   C235.056732,362.221497 235.411926,359.889038 235.803177,357.319824   C226.786896,357.319824 218.580841,357.319824 210.329208,357.319824   C210.329208,372.354553 210.329208,387.060242 210.329208,401.785431   C219.050430,401.785431 227.431427,401.785431 235.781403,401.785431   C235.781403,399.345062 235.781403,397.286224 235.781403,394.688202   C230.177902,394.688202 224.938248,394.688202 219.442429,394.688202   C219.442429,390.577728 219.442429,387.014618 219.442429,382.826447   C224.598984,382.826447 229.491806,382.826447 234.569473,382.826447   C234.569473,379.967407 234.569473,377.735046 234.569473,374.929932   C229.402924,374.929932 224.502869,374.929932 219.548172,374.929932   C219.548172,371.301331 219.548172,368.256378 219.548172,364.792145   C224.573166,364.792145 229.213547,364.792145 234.701538,364.553925  M951.979614,388.492584   C951.979614,392.941406 951.979614,397.390228 951.979614,401.964417   C955.375916,401.964417 958.281860,401.964417 961.334656,401.964417   C961.334656,386.893219 961.334656,372.165619 961.334656,357.310455   C958.134277,357.310455 955.244263,357.310455 951.979614,357.310455   C951.979614,367.589417 951.979614,377.542114 951.979614,388.492584  z" stroke="none" opacity="1.000000" fill="#E94D44"/>
<path d="M715.774902,178.756470   C729.015564,167.944214 744.440063,164.105347 760.612366,163.113037   C773.395813,162.328644 786.242920,162.438690 799.062317,162.413559   C838.387329,162.336456 877.712708,162.385437 917.037903,162.385391   C919.170715,162.385391 921.303528,162.385376 924.050110,162.385376   C923.065247,152.032837 919.297180,143.681290 912.017151,137.057205   C902.859192,128.724487 891.426697,125.653641 879.597351,124.133148   C871.694702,123.117363 863.666626,122.701218 855.692749,122.678566   C809.702576,122.547920 763.711914,122.614494 717.721375,122.614243   C715.757080,122.614235 713.792725,122.614235 711.485596,122.614235   C711.485596,110.061768 711.485596,98.026955 711.485596,85.385780   C713.502991,85.385780 715.291321,85.385780 717.079590,85.385780   C765.402954,85.385834 813.726807,85.262695 862.049377,85.456627   C877.739136,85.519592 893.250122,87.430115 908.230591,92.590591   C938.779236,103.113983 955.259521,125.085777 959.834778,156.428955   C961.127319,165.284149 961.490784,174.336365 961.534180,183.301834   C961.714966,220.626602 961.611023,257.952728 961.611511,295.278381   C961.611511,297.246460 961.611511,299.214539 961.611511,301.859772   C959.348328,301.859772 957.585571,301.859772 955.822815,301.859772   C895.501892,301.859467 835.179138,302.108917 774.861755,301.644989   C763.009155,301.553833 750.912842,299.772430 739.391968,296.907959   C715.686646,291.014008 702.014771,275.147369 697.860901,251.047440   C695.369202,236.591370 695.559265,222.229080 698.829651,207.912857   C701.424377,196.554245 706.691589,186.753708 715.774902,178.756470  M924.309326,199.944061   C923.487610,199.836685 922.665894,199.635651 921.844116,199.635361   C873.515869,199.618362 825.185608,199.384064 776.861206,199.813095   C767.189331,199.898972 757.369812,201.835312 747.933472,204.184189   C740.218445,206.104584 735.789673,212.377411 734.989929,220.334641   C734.293701,227.261703 733.832336,234.323761 734.373169,241.239685   C735.380127,254.117096 740.102051,259.475830 752.684082,262.034943   C759.810669,263.484436 767.196533,264.261963 774.469727,264.290924   C822.797241,264.483276 871.125916,264.394318 919.454163,264.379944   C921.213806,264.379425 922.973511,264.203094 924.927734,264.098267   C924.927734,242.622650 924.927734,221.661530 924.309326,199.944061  z" stroke="none" opacity="1.000000" fill="#1E1C1B"/>
<path d="M538.000000,223.001892   C500.865021,223.001892 464.230011,223.001892 427.576080,223.001892   C428.706268,243.523895 441.563934,257.632019 463.636078,261.817780   C472.907684,263.576080 482.450531,264.660339 491.877777,264.714661   C540.692322,264.996246 589.509277,264.845673 638.325439,264.845764   C640.313049,264.845764 642.300720,264.845764 644.721313,264.845764   C644.721313,277.145508 644.721313,289.175537 644.721313,301.855072   C642.870667,301.855072 641.093262,301.855072 639.315918,301.855072   C590.166565,301.855072 541.012329,302.237671 491.870911,301.612671   C477.851593,301.434326 463.576202,299.564667 449.929535,296.320068   C418.655548,288.884399 399.222900,268.668579 392.500000,237.213455   C386.305359,208.229584 386.310455,178.974197 392.520752,149.976410   C399.905304,115.495712 422.310577,95.959740 456.178131,89.204102   C467.216064,87.002357 478.600342,85.751297 489.851776,85.558578   C518.999634,85.059303 548.171021,84.966385 577.313538,85.601318   C588.857056,85.852821 600.609375,87.416351 611.810242,90.211288   C634.487976,95.870071 647.989075,110.855103 652.198669,134.034348   C654.789368,148.299469 654.843323,162.545624 651.797852,176.702667   C646.529907,201.191101 630.393433,214.745728 606.690552,219.761520   C597.632629,221.678284 588.251648,222.520691 578.980774,222.871292   C565.504822,223.380936 551.995239,223.001938 538.000000,223.001892  M436.056396,140.608612   C426.451019,154.246902 425.814270,169.898727 425.108154,185.764221   C426.743073,185.879730 427.564606,185.988403 428.386108,185.988556   C476.837311,185.996765 525.289307,186.137543 573.738953,185.861603   C582.147705,185.813721 590.646912,184.508163 598.923401,182.869812   C608.499329,180.974289 614.740967,174.835480 615.611755,164.854187   C616.244385,157.602768 616.181396,150.195099 615.487976,142.947098   C614.568420,133.335464 608.852417,127.075935 599.452637,124.812225   C593.666992,123.418892 587.698242,122.112007 581.790955,122.013893   C554.831726,121.566154 527.864624,121.400764 500.901428,121.479195   C491.109680,121.507683 481.254059,121.963707 471.546692,123.177361   C458.120056,124.856010 445.479767,128.823380 436.056396,140.608612  z" stroke="none" opacity="1.000000" fill="#1C1B1B"/>
<path d="M327.804077,125.804276   C303.555054,149.132355 279.556152,172.210266 254.956451,195.865952   C296.904175,230.994385 338.579987,265.895111 380.995667,301.415405   C378.950714,301.619354 377.776581,301.836792 376.602112,301.838440   C360.273346,301.861450 343.942688,301.976685 327.617706,301.728119   C325.078674,301.689514 322.069946,300.550415 320.114746,298.918243   C291.219818,274.797668 262.467346,250.506378 233.676956,226.260544   C231.784668,224.666931 229.858398,223.113647 227.650391,221.296768   C217.696381,230.797653 207.953949,240.074707 198.235825,249.377182   C180.792770,266.074188 163.385208,282.808350 145.884338,299.444458   C144.673462,300.595520 142.823746,301.718903 141.253082,301.744354   C129.444321,301.936035 117.631035,301.848846 105.409966,301.848846   C105.409966,229.693893 105.409966,157.845032 105.409966,85.446487   C116.750763,85.446487 128.039062,85.395210 139.324234,85.559898   C140.090378,85.571091 141.177032,87.097702 141.497421,88.114082   C141.880112,89.328140 141.602493,90.751892 141.602524,92.084808   C141.603317,143.237259 141.603180,194.389709 141.603165,245.542160   C141.603165,247.494003 141.603165,249.445862 141.603165,252.757797   C148.042557,246.699005 153.581345,241.562851 159.038391,236.341278   C206.565018,190.865479 254.445679,145.748947 301.321136,99.611252   C312.346375,88.759521 323.182953,83.401489 338.481323,85.178825   C348.299011,86.319420 358.356903,85.392761 369.899597,85.392761   C355.241180,99.461243 341.647705,112.507675 327.804077,125.804276  z" stroke="none" opacity="1.000000" fill="#1C1B1B"/>
<path d="M767.371826,367.049011   C767.372070,363.590851 767.372070,360.623322 767.372070,357.324432   C770.710938,357.324432 773.587952,357.324432 776.977661,357.324432   C776.977661,362.653381 776.977661,367.859955 776.977661,373.066559   C777.278198,373.150330 777.578674,373.234100 777.879211,373.317841   C780.091553,369.895660 782.316711,366.481659 784.513550,363.049561   C788.994995,356.048126 788.988708,356.044098 798.372864,357.647827   C795.064758,362.851593 792.022278,367.933746 788.663696,372.797607   C786.948853,375.280975 786.614990,377.300171 788.198792,380.036224   C791.766357,386.199066 794.999573,392.555420 798.988831,399.988220   C800.791443,393.464600 802.301453,388.108368 803.748901,382.735291   C805.737732,375.352295 807.824646,367.990601 809.567444,360.549042   C810.235901,357.694641 811.507812,356.908173 814.333374,356.914825   C822.164368,356.933228 822.146484,356.800873 824.147461,364.281555   C827.449707,376.627533 830.778198,388.966553 834.325867,402.164612   C832.195618,402.164612 830.592163,401.958282 829.061707,402.205231   C825.244263,402.821136 823.378357,401.080505 823.303040,397.470215   C823.217773,393.385468 821.009949,392.483429 817.464905,392.839905   C814.111694,393.177063 809.714600,391.384338 809.556396,397.364441   C809.450684,401.360596 807.076111,401.818268 803.397583,402.375305   C792.766235,403.985138 785.970581,400.535797 783.092407,389.927246   C782.630737,388.225494 781.419128,386.727234 780.410828,384.871155   C774.333496,389.616486 778.552307,396.388397 776.412720,401.913666   C773.684143,401.913666 770.919800,401.913666 767.371521,401.913666   C767.371521,390.370514 767.371521,378.955048 767.371826,367.049011  M815.111389,370.940735   C814.189941,375.522064 813.268494,380.103394 812.329346,384.772614   C815.287781,384.772614 817.655151,384.772614 820.572021,384.772614   C819.243286,378.528198 818.018005,372.770142 816.603577,366.122955   C815.968323,368.059692 815.616455,369.132446 815.111389,370.940735  z" stroke="none" opacity="1.000000" fill="#211C1B"/>
<path d="M945.165894,392.962952   C945.166016,396.097351 945.166016,398.737000 945.166016,401.769348   C942.258850,401.769348 939.702026,401.769348 936.524475,401.769348   C936.524475,392.396576 936.524475,382.996613 936.524475,373.596649   C936.105713,373.546478 935.687012,373.496277 935.268250,373.446106   C933.077820,382.870911 930.887390,392.295715 928.726501,401.593353   C921.315002,402.798859 921.324158,402.796783 919.707886,395.726593   C917.833557,387.527374 915.941101,379.332306 913.220459,371.252350   C913.220459,381.261017 913.220459,391.269653 913.220459,401.718994   C910.364319,401.718994 907.820007,401.718994 904.813232,401.718994   C904.813232,387.140228 904.813232,372.452850 904.813232,357.006531   C908.660706,357.006531 912.595825,356.779999 916.470825,357.162628   C917.464294,357.260742 918.783386,359.164307 919.074646,360.439087   C920.960266,368.691895 922.602905,377.000244 925.360718,385.502167   C927.357300,376.163971 929.353943,366.825806 931.398987,357.260864   C935.820801,357.260864 940.088440,357.260864 945.165833,357.260864   C945.165833,369.006470 945.165833,380.737305 945.165894,392.962952  z" stroke="none" opacity="1.000000" fill="#221D1C"/>
<path d="M271.014130,375.000977   C271.014130,384.128235 271.014130,392.755829 271.014130,402.172150   C268.619202,402.172150 266.523926,401.997955 264.469360,402.212708   C261.331635,402.540619 259.770782,401.427856 258.758636,398.279816   C256.133606,390.115448 253.065720,382.093445 249.213776,374.153290   C249.213776,383.277893 249.213776,392.402466 249.213776,401.839722   C246.116547,401.839722 243.554657,401.839722 240.677002,401.839722   C240.677002,386.945801 240.677002,372.228088 240.677002,356.985992   C243.216537,356.985992 245.520813,357.177246 247.779373,356.937592   C250.605804,356.637665 251.892151,357.781250 252.775314,360.426910   C255.345428,368.126038 258.191284,375.733154 261.878540,383.321350   C261.878540,374.766479 261.878540,366.211609 261.878540,357.329865   C265.125427,357.329865 267.702423,357.329865 271.014130,357.329865   C271.014130,362.990662 271.014130,368.745972 271.014130,375.000977  z" stroke="none" opacity="1.000000" fill="#221D1C"/>
<path d="M380.791595,401.313538   C380.563782,386.481415 380.563782,372.041016 380.563782,357.774902   C381.163208,357.437469 381.431427,357.162872 381.716827,357.143738   C391.102356,356.513580 391.090179,356.521698 394.241638,365.240082   C396.528595,371.566864 398.853973,377.879730 402.160675,384.034607   C402.160675,375.194061 402.160675,366.353546 402.160675,357.262390   C405.266388,357.262390 407.840820,357.262390 410.713074,357.262390   C410.713074,372.132080 410.713074,386.844208 410.713074,401.478333   C410.254822,401.721497 409.983521,401.982758 409.697083,402.000519   C400.269745,402.585236 400.269501,402.581787 397.166229,393.838562   C394.837372,387.277222 392.508606,380.715820 390.179779,374.154449   C389.890015,374.179718 389.600250,374.204956 389.310486,374.230225   C389.310486,383.311646 389.310486,392.393097 389.310486,402.214935   C386.138428,402.019928 383.578918,401.862579 380.791595,401.313538  z" stroke="none" opacity="1.000000" fill="#1E1C1B"/>
<path d="M203.380402,395.122040   C200.280716,397.648254 197.560745,401.202362 194.360123,401.706787   C188.060532,402.699646 181.494064,401.999176 174.707306,401.999176   C174.707306,387.003632 174.707306,372.294464 174.707306,357.195068   C181.150574,357.195068 187.422775,356.936981 193.660751,357.287567   C197.686264,357.513794 201.073181,359.625000 202.323456,363.743896   C203.677017,368.202972 203.663696,372.630341 200.138779,376.331757   C199.464920,377.039337 198.718307,377.677643 197.974609,378.376770   C204.514526,382.835419 205.544510,385.937042 203.380402,395.122040  M191.358521,382.803925   C189.023865,382.497803 186.689224,382.191681 184.381256,381.889038   C184.381256,386.943146 184.381256,391.148163 184.381256,397.068573   C188.236572,395.075195 191.872055,394.239319 193.741882,391.956970   C195.938675,389.275482 195.079315,385.653961 191.358521,382.803925  M184.591278,374.972717   C187.971893,375.562317 191.583801,376.040497 192.990112,372.005493   C193.600708,370.253571 193.398178,366.981964 192.264297,366.128357   C190.214615,364.585297 187.188187,364.339752 184.134048,363.421417   C184.134048,367.894623 184.134048,371.031006 184.591278,374.972717  z" stroke="none" opacity="1.000000" fill="#201C1B"/>
<path d="M143.359344,359.260559   C147.595825,358.055939 151.517090,356.924377 155.512344,356.202240   C158.088669,355.736603 161.404556,358.630249 163.104050,354.400879   C163.989746,355.164032 165.331268,355.775696 165.647827,356.728027   C166.060089,357.968353 165.111954,359.784210 165.693085,360.825836   C171.198853,370.694092 169.669189,381.280670 168.308701,391.538086   C167.061737,400.939484 160.901535,404.250000 150.174973,403.005005   C148.182678,402.773773 145.937775,401.408997 144.765854,404.490082   C144.636597,404.829865 143.139877,405.031067 142.608948,404.723755   C142.127197,404.444916 142.030762,403.397980 141.882172,402.665741   C141.490768,400.737152 141.315521,398.752869 140.785934,396.866028   C137.213104,384.136902 135.435745,371.540405 143.359344,359.260559  M151.295074,363.634583   C145.404922,370.605255 147.886490,378.619080 148.295273,386.435181   C151.309692,380.824951 153.813049,375.098236 156.260513,369.347748   C158.533295,364.007721 157.915344,363.158539 151.295074,363.634583  M159.785294,387.924042   C159.785294,382.758209 159.785294,377.592377 159.785294,372.426514   C156.054062,378.844238 153.164673,385.444397 150.330017,392.067963   C149.244385,394.604767 150.461136,395.832123 152.929367,396.099579   C158.443970,396.697113 158.803970,392.507507 159.785294,387.924042  z" stroke="none" opacity="1.000000" fill="#211C1B"/>
<path d="M650.015991,388.538452   C648.890869,382.500305 644.763916,383.050079 640.060486,383.425507   C640.060486,389.558136 640.060486,395.624481 640.060486,401.920624   C636.675354,401.920624 633.908752,401.920624 630.755371,401.920624   C630.755371,387.041473 630.755371,372.319061 630.755371,357.167725   C637.492981,357.167725 644.154907,356.617065 650.686890,357.303375   C659.383057,358.217010 663.235901,369.661682 657.597412,376.856262   C656.812317,377.858093 655.604675,378.528778 654.407959,379.503113   C662.563721,385.533783 658.159729,394.471527 660.816284,401.534058   C660.442078,401.730835 660.158691,401.999268 659.857727,402.020752   C650.295715,402.702179 650.155090,402.565033 650.128906,392.972595   C650.125244,391.640350 650.077087,390.308258 650.015991,388.538452  M648.687012,375.043274   C648.919678,372.112152 650.369202,368.303009 649.058044,366.485901   C647.619019,364.491638 643.635498,364.333435 640.258179,363.207672   C640.258179,368.518768 640.258179,372.407654 640.258179,377.203003   C643.130066,376.605743 645.590637,376.094055 648.687012,375.043274  z" stroke="none" opacity="1.000000" fill="#201C1B"/>
<path d="M277.120911,369.019104   C277.120972,364.894501 277.120972,361.265717 277.120972,357.314423   C280.310577,357.314423 283.058380,357.314423 286.466431,357.314423   C286.466431,362.645599 286.466431,368.028381 286.466431,373.760590   C290.177094,373.760590 293.241882,373.760590 296.876038,373.760590   C296.876038,368.349335 296.876038,362.951874 296.876038,357.272461   C300.316040,357.272461 303.200317,357.272461 306.320374,357.272461   C306.320374,372.252197 306.320374,386.974609 306.320374,401.934631   C303.221527,401.934631 300.445099,401.934631 297.035828,401.934631   C297.035828,395.450806 297.035828,389.067169 297.035828,382.501953   C293.339874,382.501953 290.279846,382.501953 286.656738,382.501953   C286.656738,389.066162 286.656738,395.315125 286.656738,401.866150   C283.343994,401.866150 280.595581,401.866150 277.120880,401.866150   C277.120880,391.028839 277.120880,380.271881 277.120911,369.019104  z" stroke="none" opacity="1.000000" fill="#241D1C"/>
<path d="M548.849609,374.103271   C549.924316,372.765289 550.973206,371.473175 551.047852,370.127045   C551.276428,366.003174 551.130981,361.858551 551.130981,357.357605   C554.409302,357.357605 557.300415,357.357605 560.530701,357.357605   C560.530701,372.113770 560.530701,386.829987 560.530701,401.848450   C557.430237,401.848450 554.548889,401.848450 551.138794,401.848450   C551.138794,395.291229 551.138794,389.036072 551.138794,382.482910   C547.693726,382.482910 544.766968,382.482910 541.185547,382.482910   C541.185547,388.808350 541.185547,395.190277 541.185547,401.861267   C537.794128,401.861267 535.042603,401.861267 531.830261,401.861267   C531.830261,387.135803 531.830261,372.439545 531.830261,357.363892   C534.655762,357.363892 537.530945,357.363892 540.977051,357.363892   C540.977051,362.796295 540.977051,368.203613 540.977051,374.124451   C543.813538,374.124451 546.095947,374.124451 548.849609,374.103271  z" stroke="none" opacity="1.000000" fill="#201C1B"/>
<path d="M495.996338,384.998535   C495.996307,375.540863 495.996307,366.582977 495.996307,357.204468   C502.979248,357.204468 509.592407,356.891388 516.157715,357.316803   C520.388672,357.590973 523.883179,360.063812 524.775696,364.485901   C525.928223,370.196808 525.858948,375.825684 519.852417,379.702118   C528.673096,385.257050 522.592712,394.787903 526.641418,401.685425   C525.682434,401.913635 525.209900,402.104736 524.729004,402.128876   C516.071106,402.563843 516.082642,402.559204 515.826782,393.843384   C515.787903,392.519226 515.603882,391.197266 515.447937,389.878937   C514.717346,383.703033 513.379272,382.768860 505.712036,383.637848   C505.712036,389.582123 505.712036,395.631348 505.712036,401.910309   C502.217255,401.910309 499.443268,401.910309 495.996399,401.910309   C495.996399,396.373718 495.996399,390.936035 495.996338,384.998535  M511.850464,364.175598   C509.881989,364.175598 507.913513,364.175598 505.757202,364.175598   C505.757202,368.447357 505.757202,372.485840 505.757202,376.600647   C509.934540,377.085632 513.801575,377.318634 515.472046,373.017853   C516.763184,369.693726 516.340820,366.398529 511.850464,364.175598  z" stroke="none" opacity="1.000000" fill="#1D1C1B"/>
<path d="M856.310669,357.199188   C862.886047,358.534576 866.579834,362.476410 866.968079,368.535553   C867.442017,375.932007 867.686401,383.468292 866.794495,390.793640   C865.812561,398.857941 861.165161,402.087555 853.037537,402.153168   C848.237549,402.191895 843.437073,402.160217 838.238220,402.160217   C838.238220,387.123901 838.238220,372.429962 838.238220,357.144073   C844.055786,357.144073 849.969971,357.144073 856.310669,357.199188  M849.416687,364.010498   C848.624390,364.598816 847.150391,365.177063 847.141541,365.776947   C846.997742,375.498901 847.039734,385.223541 847.039734,394.840088   C854.878723,396.157745 857.628845,394.257233 858.051880,387.073669   C858.362305,381.801392 858.302917,376.480438 857.987122,371.206390   C857.714233,366.646942 855.295593,363.797546 849.416687,364.010498  z" stroke="none" opacity="1.000000" fill="#1E1C1B"/>
<path d="M116.519379,371.401154   C118.250809,368.734650 120.114517,366.501801 121.235703,363.943542   C124.020210,357.589966 128.558487,355.424835 135.718307,357.613068   C132.359177,362.897400 128.801376,368.053467 125.784325,373.508575   C124.876991,375.149109 124.718407,377.982452 125.513824,379.651093   C128.943756,386.846161 132.856445,393.811066 136.583450,400.865021   C136.649521,400.990051 136.591721,401.180511 136.590118,401.340454   C128.600693,403.519318 127.209709,402.931976 123.584511,395.920563   C121.829376,392.525970 120.046013,389.145905 118.250282,385.772644   C118.106056,385.501709 117.766060,385.334961 117.415993,385.032501   C111.815643,389.506805 115.285522,395.953400 113.730576,401.726685   C111.163155,401.726685 108.442390,401.726685 105.354370,401.726685   C105.354370,387.124451 105.354370,372.405975 105.354370,357.340393   C108.053497,357.340393 110.771866,357.340393 114.015198,357.340393   C114.015198,362.604492 114.015198,367.819336 114.015198,374.199402   C115.328758,372.763458 115.821243,372.225067 116.519379,371.401154  z" stroke="none" opacity="1.000000" fill="#1D1C1B"/>
<path d="M707.577698,382.466248   C702.077087,380.295776 698.381653,377.103027 697.992554,371.118805   C697.569092,364.605255 699.784912,359.939636 704.492188,357.638184   C710.012451,354.939301 719.417725,355.506226 722.840515,359.552246   C724.977661,362.078522 725.795410,365.721100 727.548584,369.627869   C723.376343,369.627869 720.760193,369.627869 717.807678,369.627869   C717.590576,369.023895 717.512146,368.126495 717.030457,367.593536   C715.602905,366.013794 714.224304,363.884613 712.414978,363.341522   C711.302551,363.007599 708.194153,365.152527 708.166199,366.240448   C708.107239,368.541870 708.816223,371.668304 710.420471,373.019348   C712.863647,375.076965 716.354004,375.871796 719.363220,377.280548   C726.571716,380.655090 729.134644,385.526917 727.637268,392.881012   C726.340088,399.251495 721.742554,402.746429 714.152283,403.131897   C701.906067,403.753876 696.733887,399.227203 697.575745,388.294189   C700.454773,388.294189 703.362305,388.294189 706.081726,388.294189   C706.936951,390.602692 707.211182,393.971497 708.614258,394.536407   C710.927917,395.467926 714.717346,395.586029 716.529724,394.232574   C719.152161,392.274139 718.737793,388.534424 715.955078,386.451233   C713.626526,384.708008 710.619873,383.870575 707.577698,382.466248  z" stroke="none" opacity="1.000000" fill="#221D1C"/>
<path d="M438.208435,377.724854   C445.674377,382.194275 447.808899,388.349426 444.696381,395.641907   C442.020660,401.910980 433.119690,404.988739 424.207458,402.726501   C417.704132,401.075745 414.790314,396.354034 415.545685,388.313934   C418.416534,388.313934 421.324432,388.313934 424.577362,388.313934   C424.697021,389.318909 424.484283,390.516571 424.984406,391.160736   C426.359253,392.931610 427.895386,395.583466 429.626160,395.797638   C431.470886,396.025909 434.903839,394.196289 435.301239,392.659454   C435.816040,390.668884 434.690094,387.205048 433.058105,385.941681   C430.257507,383.773590 426.489319,382.879822 423.179535,381.338928   C418.951965,379.370728 416.295258,376.217224 415.996582,371.366302   C415.647888,365.703888 416.605408,360.469269 422.271881,357.828857   C428.369843,354.987366 434.659912,355.105835 440.304413,359.060272   C443.715240,361.449768 444.749512,365.114166 443.760010,369.551453   C441.145020,369.551453 438.554413,369.551453 435.687347,369.551453   C435.501862,369.019531 435.453125,368.280151 435.061432,367.862122   C433.520874,366.217834 432.097107,364.096710 430.166016,363.345673   C429.245148,362.987579 426.056763,365.297913 426.050049,366.412506   C426.036255,368.700684 426.829590,371.806580 428.461334,373.106995   C431.103577,375.212738 434.688751,376.135315 438.208435,377.724854  z" stroke="none" opacity="1.000000" fill="#211C1B"/>
<path d="M315.884460,377.781494   C317.338684,372.244293 319.011810,367.162598 319.977844,361.949890   C320.742310,357.824982 322.638550,356.333466 326.696960,356.939484   C328.637024,357.229156 330.656128,356.989319 333.022034,356.989319   C337.016632,371.903595 340.959473,386.624695 345.022339,401.793884   C341.591522,401.793884 338.550323,401.793884 335.533508,401.793884   C332.042419,392.103638 332.042419,392.103638 321.690491,393.235504   C320.705444,396.050720 320.448059,399.810699 318.439423,401.561157   C316.858704,402.938751 313.117981,401.837830 309.465118,401.837830   C311.636444,393.727051 313.717407,385.953796 315.884460,377.781494  M327.850067,367.798065   C327.654358,367.667572 327.470764,367.502197 327.255676,367.427338   C327.189423,367.404297 326.965546,367.611328 326.934662,367.741577   C325.613281,373.319366 324.305542,378.900421 322.924744,384.785461   C325.875763,384.785461 328.394135,384.785461 331.374390,384.785461   C330.177002,379.033783 329.074127,373.736053 327.850067,367.798065  z" stroke="none" opacity="1.000000" fill="#201C1B"/>
<path d="M752.772827,357.927856   C756.798401,372.692505 760.654053,387.066833 764.524536,401.496216   C755.306946,403.094208 755.306946,403.094208 752.690979,393.491425   C742.860718,391.466278 741.964417,391.987335 738.562866,401.910217   C735.710205,401.910217 732.767090,401.910217 729.061829,401.910217   C733.062012,386.862152 736.995544,372.064606 741.053650,356.798645   C745.082397,357.056396 748.842712,357.296967 752.772827,357.927856  M744.117920,377.643860   C743.718445,379.990448 743.318909,382.337036 742.897217,384.813934   C745.957031,384.813934 748.344482,384.813934 751.082458,384.813934   C749.718323,378.660187 748.445862,372.920288 747.173462,367.180420   C746.921936,367.215424 746.670349,367.250427 746.418762,367.285461   C745.709717,370.462006 745.000671,373.638519 744.117920,377.643860  z" stroke="none" opacity="1.000000" fill="#201C1B"/>
<path d="M693.990845,366.065674   C691.494202,377.016479 688.782776,387.500031 686.723999,398.110260   C685.670532,403.539642 681.991699,401.932190 678.801636,402.166504   C675.691772,402.394958 673.242493,402.418060 672.359253,398.158630   C669.558777,384.653748 666.257935,371.252625 663.051208,357.381836   C666.323608,357.381836 669.363159,357.381836 673.139038,357.381836   C675.126526,367.430420 677.174500,377.784485 679.222412,388.138550   C679.425110,388.155945 679.627808,388.173340 679.830505,388.190735   C681.937744,377.992340 684.044983,367.793915 686.211304,357.309692   C689.388855,357.309692 692.473816,357.309692 695.977478,357.309692   C695.303589,360.220612 694.674988,362.935699 693.990845,366.065674  z" stroke="none" opacity="1.000000" fill="#201C1B"/>
<path d="M591.083496,382.185242   C589.852173,387.620239 588.412048,392.602203 587.635254,397.685486   C587.040649,401.576721 585.116272,402.577026 581.577515,402.207306   C579.298157,401.969147 576.973694,402.162567 574.319275,402.162567   C570.821716,387.126129 567.405334,372.438568 563.892883,357.338013   C567.306580,357.338013 570.366028,357.338013 573.987671,357.338013   C576.009705,367.533752 578.064636,377.894989 580.402954,389.685486   C582.811340,377.986664 584.916504,367.761047 587.073730,357.282196   C590.282471,357.282196 593.358643,357.282196 596.868958,357.282196   C594.923279,365.630005 593.041687,373.702911 591.083496,382.185242  z" stroke="none" opacity="1.000000" fill="#201C1B"/>
<path d="M347.244629,369.777344   C346.309845,365.494171 345.478577,361.614258 344.679688,357.885468   C345.320068,357.471008 345.580902,357.161346 345.864136,357.139343   C354.528595,356.465393 354.468567,356.480957 356.079620,365.195221   C357.407379,372.377350 358.900421,379.528931 361.311218,386.882111   C362.155518,383.196411 363.053253,379.521942 363.830292,375.822113   C364.752258,371.432281 365.951508,367.053375 366.332733,362.609833   C366.768494,357.530762 369.355194,356.236725 373.833588,356.982666   C374.791382,357.142242 375.767822,357.190002 377.315277,357.348663   C375.054749,367.300110 372.859100,376.977417 370.656799,386.653198   C370.066589,389.246216 369.460602,391.835693 368.853882,394.424927   C366.956085,402.523956 365.272430,403.726044 356.979980,402.007111   C355.766724,401.755646 354.396912,399.748138 354.033295,398.316071   C351.661255,388.974060 349.546814,379.566620 347.244629,369.777344  z" stroke="none" opacity="1.000000" fill="#201C1B"/>
<path d="M472.112549,402.176422   C469.815002,402.176666 468.001648,402.176666 465.772949,402.176666   C465.772949,387.095947 465.772949,372.385376 465.772949,357.325073   C474.038910,357.325073 482.251251,357.325073 490.743103,357.325073   C490.743103,359.702240 490.743103,361.951904 490.743103,364.819031   C485.576233,364.819031 480.510162,364.819031 475.170898,364.819031   C475.170898,368.358276 475.170898,371.292755 475.170898,374.768311   C479.896301,374.768311 484.639648,374.768311 489.775940,374.768311   C489.775940,377.644928 489.775940,379.989716 489.775940,382.762238   C484.941040,382.762238 480.327332,382.762238 475.300781,382.762238   C475.300781,386.862671 475.300781,390.551544 475.300781,394.779968   C480.706329,394.779968 485.962708,394.779968 491.540436,394.779968   C491.540436,397.368866 491.540436,399.427490 491.540436,402.176178   C485.137421,402.176178 478.867096,402.176178 472.112549,402.176422  z" stroke="none" opacity="1.000000" fill="#241D1C"/>
<path d="M615.132263,394.838593   C618.906250,394.839050 622.198486,394.839050 625.820923,394.839050   C625.820923,397.355591 625.820923,399.414581 625.820923,401.818878   C617.355469,401.818878 608.976990,401.818878 600.292725,401.818878   C600.292725,386.980743 600.292725,372.274506 600.292725,357.278931   C608.683777,357.278931 616.916504,357.278931 625.506348,357.278931   C625.506348,359.610199 625.506348,361.845398 625.506348,364.721222   C620.457520,364.721222 615.401550,364.721222 609.989014,364.721222   C609.989014,368.382751 609.989014,371.414032 609.989014,374.854431   C614.809143,374.854431 619.419189,374.854431 624.442261,374.854431   C624.442261,377.596497 624.442261,379.941132 624.442261,382.773529   C619.677856,382.773529 615.081299,382.773529 610.056763,382.773529   C610.056763,386.777679 610.056763,390.323151 610.056763,394.493744   C611.517273,394.603241 613.083923,394.720703 615.132263,394.838593  z" stroke="none" opacity="1.000000" fill="#1F1C1B"/>
<path d="M895.826599,402.157379   C888.399231,402.157745 881.452332,402.157745 874.176636,402.157745   C874.176636,386.991699 874.176636,372.297943 874.176636,357.297913   C882.526611,357.297913 890.747681,357.297913 899.292297,357.297913   C899.292297,359.672577 899.292297,361.912567 899.292297,364.687592   C894.073242,364.687592 889.001099,364.687592 883.548035,364.687592   C883.548035,368.256775 883.548035,371.299530 883.548035,374.829102   C888.365173,374.829102 893.119751,374.829102 898.241211,374.829102   C898.241211,377.538910 898.241211,379.780304 898.241211,382.747223   C893.402588,382.747223 888.547485,382.747223 883.444214,382.747223   C883.444214,387.030731 883.444214,390.592926 883.444214,394.726196   C888.939270,394.726196 894.173523,394.726196 899.941223,394.726196   C899.233215,397.975342 902.616943,402.245789 895.826599,402.157379  z" stroke="none" opacity="1.000000" fill="#1E1C1B"/>
<path d="M234.277740,364.673035   C229.213547,364.792145 224.573166,364.792145 219.548172,364.792145   C219.548172,368.256378 219.548172,371.301331 219.548172,374.929932   C224.502869,374.929932 229.402924,374.929932 234.569473,374.929932   C234.569473,377.735046 234.569473,379.967407 234.569473,382.826447   C229.491806,382.826447 224.598984,382.826447 219.442429,382.826447   C219.442429,387.014618 219.442429,390.577728 219.442429,394.688202   C224.938248,394.688202 230.177902,394.688202 235.781403,394.688202   C235.781403,397.286224 235.781403,399.345062 235.781403,401.785431   C227.431427,401.785431 219.050430,401.785431 210.329208,401.785431   C210.329208,387.060242 210.329208,372.354553 210.329208,357.319824   C218.580841,357.319824 226.786896,357.319824 235.803177,357.319824   C235.411926,359.889038 235.056732,362.221497 234.277740,364.673035  z" stroke="none" opacity="1.000000" fill="#1E1C1B"/>
<path d="M951.979614,387.993713   C951.979614,377.542114 951.979614,367.589417 951.979614,357.310455   C955.244263,357.310455 958.134277,357.310455 961.334656,357.310455   C961.334656,372.165619 961.334656,386.893219 961.334656,401.964417   C958.281860,401.964417 955.375916,401.964417 951.979614,401.964417   C951.979614,397.390228 951.979614,392.941406 951.979614,387.993713  z" stroke="none" opacity="1.000000" fill="#241D1C"/>
<path d="M924.618530,200.322235   C924.927734,221.661530 924.927734,242.622650 924.927734,264.098267   C922.973511,264.203094 921.213806,264.379425 919.454163,264.379944   C871.125916,264.394318 822.797241,264.483276 774.469727,264.290924   C767.196533,264.261963 759.810669,263.484436 752.684082,262.034943   C740.102051,259.475830 735.380127,254.117096 734.373169,241.239685   C733.832336,234.323761 734.293701,227.261703 734.989929,220.334641   C735.789673,212.377411 740.218445,206.104584 747.933472,204.184189   C757.369812,201.835312 767.189331,199.898972 776.861206,199.813095   C825.185608,199.384064 873.515869,199.618362 921.844116,199.635361   C922.665894,199.635651 923.487610,199.836685 924.618530,200.322235  z" stroke="none" opacity="1.000000" fill="#E94D44"/>
<path d="M436.278748,140.328857   C445.479767,128.823380 458.120056,124.856010 471.546692,123.177361   C481.254059,121.963707 491.109680,121.507683 500.901428,121.479195   C527.864624,121.400764 554.831726,121.566154 581.790955,122.013893   C587.698242,122.112007 593.666992,123.418892 599.452637,124.812225   C608.852417,127.075935 614.568420,133.335464 615.487976,142.947098   C616.181396,150.195099 616.244385,157.602768 615.611755,164.854187   C614.740967,174.835480 608.499329,180.974289 598.923401,182.869812   C590.646912,184.508163 582.147705,185.813721 573.738953,185.861603   C525.289307,186.137543 476.837311,185.996765 428.386108,185.988556   C427.564606,185.988403 426.743073,185.879730 425.108154,185.764221   C425.814270,169.898727 426.451019,154.246902 436.278748,140.328857  z" stroke="none" opacity="1.000000" fill="#E94D44"/>
<path d="M815.187988,370.572998   C815.616455,369.132446 815.968323,368.059692 816.603577,366.122955   C818.018005,372.770142 819.243286,378.528198 820.572021,384.772614   C817.655151,384.772614 815.287781,384.772614 812.329346,384.772614   C813.268494,380.103394 814.189941,375.522064 815.187988,370.572998  z" stroke="none" opacity="1.000000" fill="#DC4A41"/>
<path d="M191.721924,382.980896   C195.079315,385.653961 195.938675,389.275482 193.741882,391.956970   C191.872055,394.239319 188.236572,395.075195 184.381256,397.068573   C184.381256,391.148163 184.381256,386.943146 184.381256,381.889038   C186.689224,382.191681 189.023865,382.497803 191.721924,382.980896  z" stroke="none" opacity="1.000000" fill="#DC4A41"/>
<path d="M184.362671,374.570038   C184.134048,371.031006 184.134048,367.894623 184.134048,363.421417   C187.188187,364.339752 190.214615,364.585297 192.264297,366.128357   C193.398178,366.981964 193.600708,370.253571 192.990112,372.005493   C191.583801,376.040497 187.971893,375.562317 184.362671,374.570038  z" stroke="none" opacity="1.000000" fill="#E74C43"/>
<path d="M151.648453,363.471802   C157.915344,363.158539 158.533295,364.007721 156.260513,369.347748   C153.813049,375.098236 151.309692,380.824951 148.295273,386.435181   C147.886490,378.619080 145.404922,370.605255 151.648453,363.471802  z" stroke="none" opacity="1.000000" fill="#DC4A41"/>
<path d="M159.718262,388.355652   C158.803970,392.507507 158.443970,396.697113 152.929367,396.099579   C150.461136,395.832123 149.244385,394.604767 150.330017,392.067963   C153.164673,385.444397 156.054062,378.844238 159.785294,372.426514   C159.785294,377.592377 159.785294,382.758209 159.718262,388.355652  z" stroke="none" opacity="1.000000" fill="#DC4A41"/>
<path d="M648.369141,375.312805   C645.590637,376.094055 643.130066,376.605743 640.258179,377.203003   C640.258179,372.407654 640.258179,368.518768 640.258179,363.207672   C643.635498,364.333435 647.619019,364.491638 649.058044,366.485901   C650.369202,368.303009 648.919678,372.112152 648.369141,375.312805  z" stroke="none" opacity="1.000000" fill="#E74C43"/>
<path d="M512.235596,364.328491   C516.340820,366.398529 516.763184,369.693726 515.472046,373.017853   C513.801575,377.318634 509.934540,377.085632 505.757202,376.600647   C505.757202,372.485840 505.757202,368.447357 505.757202,364.175598   C507.913513,364.175598 509.881989,364.175598 512.235596,364.328491  z" stroke="none" opacity="1.000000" fill="#DC4A41"/>
<path d="M849.854126,364.007355   C855.295593,363.797546 857.714233,366.646942 857.987122,371.206390   C858.302917,376.480438 858.362305,381.801392 858.051880,387.073669   C857.628845,394.257233 854.878723,396.157745 847.039734,394.840088   C847.039734,385.223541 846.997742,375.498901 847.141541,365.776947   C847.150391,365.177063 848.624390,364.598816 849.854126,364.007355  z" stroke="none" opacity="1.000000" fill="#E74C43"/>
<path d="M327.910645,368.118195   C329.074127,373.736053 330.177002,379.033783 331.374390,384.785461   C328.394135,384.785461 325.875763,384.785461 322.924744,384.785461   C324.305542,378.900421 325.613281,373.319366 326.934662,367.741577   C326.965546,367.611328 327.189423,367.404297 327.255676,367.427338   C327.470764,367.502197 327.654358,367.667572 327.910645,368.118195  z" stroke="none" opacity="1.000000" fill="#DC4A41"/>
<path d="M744.204773,377.229462   C745.000671,373.638519 745.709717,370.462006 746.418762,367.285461   C746.670349,367.250427 746.921936,367.215424 747.173462,367.180420   C748.445862,372.920288 749.718323,378.660187 751.082458,384.813934   C748.344482,384.813934 745.957031,384.813934 742.897217,384.813934   C743.318909,382.337036 743.718445,379.990448 744.204773,377.229462  z" stroke="none" opacity="1.000000" fill="#DC4A41"/>
</svg>